<svg width="115" height="44" viewBox="0 0 115 44" fill="none" xmlns="http://www.w3.org/2000/svg">
<path fill-rule="evenodd" clip-rule="evenodd" d="M21.9999 0C9.86102 0 0 9.86122 0 21.9999C0 34.1395 9.86102 44 21.9999 44C34.1391 44 44 34.1395 44 21.9999C44 9.86122 34.1391 0 21.9999 0ZM42.3194 22C42.3194 10.7779 33.2221 1.68056 22 1.68056C10.7779 1.68056 1.68056 10.7779 1.68056 22C1.68056 29.3335 5.5655 35.7596 11.3896 39.3325C14.2499 38.8502 16.914 38.6873 18.4793 38.5916L18.5447 38.5876L18.5515 38.535C18.5586 38.4883 18.5617 38.4667 18.5651 38.4433C18.5681 38.4229 18.5712 38.4012 18.5773 38.3603C18.5476 38.1397 18.5172 37.9191 18.4869 37.6987C18.4721 37.5915 18.4574 37.4844 18.4427 37.3773C18.3751 36.7312 18.308 36.0861 18.2859 35.5268C18.2786 35.3421 18.2468 35.115 18.209 34.8457C18.1325 34.2996 18.0316 33.5799 18.0616 32.6868C18.107 31.3525 18.2411 30.2768 18.353 30.083C18.4093 29.9862 18.4205 29.7651 18.4316 29.5442C18.4427 29.324 18.4538 29.104 18.5096 29.0072C18.5999 28.8516 18.5742 28.2392 18.5495 27.6476C18.5434 27.502 18.5373 27.3574 18.5331 27.2215C18.5224 26.9085 18.508 26.631 18.4954 26.3893C18.4803 26.0992 18.4678 25.8602 18.4678 25.673C18.4678 25.3292 18.1298 25.3498 17.7929 25.3708H17.7889C17.5999 25.3707 17.411 25.3707 17.3825 25.5624C17.354 25.7532 17.3159 26.7351 17.2778 27.7202L17.2771 27.737C17.2303 27.7327 17.1831 27.7276 17.1359 27.7225C17.1156 27.7203 17.0953 27.7181 17.075 27.716C17.0828 26.9206 17.0906 26.1238 17.0972 25.3285C17.0558 25.2009 17.0129 25.074 16.807 24.876C16.6544 24.7301 16.4258 24.7186 16.3033 24.7124C16.2635 24.7104 16.2348 24.709 16.2237 24.7037C16.1789 24.6826 16.1118 24.0372 16.1789 23.8649C16.2457 23.6926 16.3815 23.2384 16.1344 23.1555C15.8437 23.0572 15.772 22.8772 15.7011 22.699C15.6626 22.6023 15.6243 22.506 15.5513 22.4237C15.4141 22.2681 15.3707 22.0554 15.3331 21.8712C15.2978 21.6984 15.2676 21.5506 15.17 21.4987C14.9685 21.3911 14.9685 21.0895 14.9685 20.7879C14.9121 20.7013 14.8566 20.6163 14.5879 20.3147C14.3271 20.0225 14.5291 19.7308 14.6229 19.5954L14.6315 19.583C14.6594 19.5432 14.6765 19.4993 14.6927 19.4576C14.7293 19.3639 14.7614 19.2814 14.9014 19.2814C15.0693 19.2814 15.0658 19.1619 15.06 18.9608C15.0588 18.9204 15.0576 18.8768 15.0576 18.8302C15.0576 18.5974 15.0116 18.5131 14.9056 18.3185C14.8842 18.2792 14.8603 18.2353 14.8338 18.1848C14.699 17.9261 14.7633 17.6657 14.8406 17.3524C14.8532 17.3012 14.8662 17.2487 14.8787 17.1945C14.9666 16.817 14.9684 16.7429 14.677 16.4634C14.4467 16.2426 14.3842 15.7123 14.3354 15.2976C14.3224 15.1877 14.3105 15.0859 14.2966 15.0002C14.229 14.5913 14.5209 13.9458 14.6315 13.8599C14.6829 13.8202 14.7062 13.6776 14.7313 13.5241C14.7612 13.3416 14.7935 13.1437 14.8787 13.0855C14.9645 13.0265 15.017 12.8774 15.0653 12.7402C15.1052 12.6269 15.1422 12.5217 15.1928 12.4823C15.2444 12.4429 15.2865 12.3391 15.3324 12.2261C15.3858 12.0944 15.4443 11.9501 15.529 11.8805C15.5908 11.8296 15.6629 11.7387 15.7386 11.6432C15.8551 11.4962 15.9802 11.3385 16.0891 11.2997C16.2691 11.2351 16.4479 11.0091 16.6267 10.7832C16.6943 10.7405 16.7615 10.6965 16.7388 10.3527C16.7167 10.0081 16.8058 9.92249 16.941 9.96546C17.075 10.0082 17.075 10.2671 17.075 10.5249L17.0831 10.5246C17.3161 10.5139 17.5479 10.5033 17.7253 10.5033C17.8098 10.5033 17.8995 10.441 17.9943 10.3752C18.1004 10.3017 18.2127 10.2238 18.3309 10.2238C18.5546 10.2238 18.9584 10.3747 19.0697 10.4174C19.1117 10.4334 19.1537 10.3955 19.2096 10.345C19.3034 10.2602 19.4365 10.1401 19.6745 10.1804L19.7215 10.1884C20.0684 10.248 20.2364 10.2769 20.2364 10.0302C20.2364 9.98745 20.2379 9.94945 20.2393 9.9147C20.2465 9.7395 20.2503 9.64669 20.0342 9.44894C19.7332 9.17344 19.7016 8.56545 19.6828 8.20357C19.6802 8.15465 19.6779 8.11023 19.6752 8.07174C19.6548 7.77544 19.8617 7.51466 19.9997 7.34065C20.0117 7.32548 20.0234 7.31081 20.0342 7.29699C20.1087 7.20154 20.1143 6.93458 20.1198 6.67158C20.1242 6.45988 20.1285 6.25075 20.1688 6.13572C20.2579 5.87747 20.6838 5.55424 20.8633 5.42495C20.9178 5.3858 20.9538 5.34677 20.9886 5.30899C21.0688 5.22199 21.1429 5.14158 21.424 5.0814C21.8273 4.99543 22.3872 5.0814 22.5674 5.21036C22.6287 5.25468 22.6874 5.27621 22.7525 5.30011C22.8774 5.34592 23.026 5.40043 23.2619 5.64089C23.6204 6.00609 23.71 6.43662 23.7543 6.86681C23.7828 7.13646 23.7318 7.38935 23.6842 7.62532C23.6559 7.76581 23.6288 7.90031 23.6204 8.02877C23.5976 8.37266 23.463 8.84648 23.3517 9.06139C23.2392 9.27672 23.0376 9.42763 22.8581 9.53529C22.856 9.53658 22.8538 9.53786 22.8517 9.53913L22.8475 9.54163C22.8434 9.54401 22.8394 9.54636 22.8355 9.54867C22.8253 9.55466 22.8153 9.56041 22.8057 9.56598C22.6597 9.65036 22.5879 9.69183 22.7683 9.83621C22.8836 9.92813 23.1621 9.93632 23.4302 9.9442C23.633 9.95017 23.8298 9.95595 23.9458 9.99763C24.1211 10.0611 24.3542 10.372 24.5977 10.697C24.7272 10.8698 24.8597 11.0465 24.988 11.1921C25.2874 11.5316 25.2781 11.6173 25.2497 11.8775C25.2431 11.9387 25.2354 12.0095 25.2304 12.0955C25.2258 12.1735 25.2186 12.2698 25.2105 12.3779C25.1716 12.8961 25.1125 13.6852 25.2304 14.0322C25.372 14.4515 25.3912 15.097 25.3912 15.6781C25.3912 16.0831 25.4896 16.1899 25.6057 16.3159C25.6561 16.3706 25.7099 16.4289 25.7603 16.5168C25.9291 16.8082 26.2313 17.5498 26.3659 18.3892C26.4446 18.88 26.4773 19.4148 26.5044 19.8584C26.5237 20.1732 26.5401 20.442 26.5682 20.6163C26.5961 20.7916 26.6829 21.0007 26.7768 21.2271C26.9076 21.5426 27.0523 21.8917 27.0718 22.2298C27.0871 22.4946 27.1585 22.8065 27.2252 23.0981C27.3049 23.446 27.3779 23.7649 27.3411 23.9404C27.2741 24.2633 26.9713 24.8438 26.5682 24.9622C26.2775 25.047 26.3701 25.1994 26.52 25.4461C26.5784 25.5423 26.6455 25.6528 26.7021 25.7793C26.82 26.0431 26.812 26.3723 26.8048 26.6715C26.7996 26.8855 26.7948 27.0842 26.8367 27.2326C26.8954 27.4397 26.9544 27.9113 27.0134 28.3837C27.0554 28.7197 27.0974 29.0563 27.1395 29.298C27.1836 29.5516 27.2342 29.7438 27.2828 29.9283C27.3453 30.1659 27.4045 30.3907 27.4422 30.7177C27.4757 31.0082 27.4757 31.5892 27.4757 32.1943C27.4757 32.7994 27.4757 33.4286 27.5091 33.8157C27.5658 34.4703 27.695 34.8942 27.855 35.4192C27.8844 35.5156 27.9148 35.6154 27.946 35.7206C28.1946 36.554 28.4305 37.2468 28.7772 38.0048C28.78 38.011 28.7853 38.0907 28.791 38.1789C28.7984 38.2908 28.8066 38.4164 28.812 38.4233C28.918 38.5605 29.1182 38.6675 29.2019 38.7121C29.2241 38.724 29.2381 38.7314 29.24 38.734C29.274 38.7788 29.3114 38.9254 29.3114 38.9254C30.2604 39.0369 31.2803 39.1775 32.5365 39.3777C38.4016 35.8139 42.3194 29.3645 42.3194 22ZM21.4891 38.5013L21.4303 38.4495C21.4016 38.3854 21.4004 38.3829 21.3833 38.345L21.3653 38.3052C21.3756 38.2413 21.3859 38.1772 21.3962 38.1132L21.3966 38.1104C21.4193 37.97 21.442 37.8294 21.4641 37.6891C21.4286 37.5944 21.3933 37.5 21.358 37.4056C21.3289 37.328 21.2999 37.2504 21.2708 37.1727L21.2651 37.084C21.1862 35.8552 21.1086 34.6452 21.077 34.2363C21.0635 34.0602 20.999 33.9012 20.9358 33.7452C20.848 33.5286 20.7624 33.3175 20.8185 33.0738C20.8565 32.9091 20.9167 32.7942 20.9743 32.6841C21.0636 32.5137 21.1467 32.3548 21.1326 32.0412C21.1116 31.5744 21.346 29.2671 21.4394 28.3482C21.4494 28.2494 21.4578 28.1666 21.4641 28.1039C21.4957 27.7881 21.558 27.4494 21.6134 27.148C21.6714 26.8327 21.7219 26.5582 21.7219 26.3933C21.7219 26.07 21.7722 24.7395 22.2239 25.1602C22.4334 25.3543 22.4934 25.5293 22.5653 25.7386C22.6483 25.9805 22.747 26.2682 23.1105 26.684C23.5282 27.1607 23.5413 27.2704 23.5729 27.5333C23.5925 27.6972 23.6193 27.9205 23.7555 28.3293C23.9607 28.9444 24.1979 29.2474 24.3805 29.4806C24.514 29.6512 24.6183 29.7844 24.6595 29.9752C24.7565 30.427 24.9503 32.0728 24.9827 32.3642C24.9932 32.4605 25.0109 32.5818 25.031 32.7196C25.0716 32.9972 25.122 33.3421 25.1436 33.6871C25.1584 33.9245 25.2004 34.0802 25.2415 34.2323C25.2898 34.4112 25.3367 34.5852 25.3367 34.8813C25.3367 35.4298 25.4021 35.817 25.563 36.2692C25.7104 36.6816 25.6425 36.8252 25.4581 37.2151C25.4405 37.2524 25.4218 37.292 25.4021 37.3342C25.1759 37.8181 25.409 37.9546 25.6427 38.0915C25.6593 38.1899 25.6767 38.2884 25.6937 38.3867C25.7038 38.4448 25.7139 38.503 25.7239 38.5613L25.7215 38.6181L25.6917 38.6165C24.8863 38.5738 24.1982 38.5373 23.3749 38.5214C22.8856 38.5118 21.4891 38.5013 21.4891 38.5013ZM24.8683 20.4847C24.4382 19.9299 24.1445 19.5735 24.1025 19.5793C24.0827 19.5938 24.1757 19.7897 24.3351 20.1253C24.4608 20.3899 24.6279 20.742 24.8133 21.1599C24.9617 21.4945 25.0582 21.8194 25.1547 22.1443C25.1926 22.2719 25.2305 22.3995 25.2715 22.5277C25.2824 22.5611 25.3289 22.5632 25.3436 22.5314C25.3702 22.4733 25.3995 22.4146 25.4288 22.356C25.5189 22.1759 25.6089 21.9959 25.6204 21.8325C25.6378 21.5867 25.5336 21.3765 25.4086 21.1521C25.3325 21.0153 25.2233 20.8938 25.1042 20.7612C25.0277 20.676 24.9469 20.5861 24.8683 20.4847Z" fill="#00B2FF"/>
<path d="M72.2207 7.88434C72.2207 7.47218 72.1313 7.10121 71.9516 6.77449C71.772 6.44527 71.4312 6.2836 70.9283 6.2836C70.6546 6.2836 70.4316 6.34239 70.2605 6.46376C70.0878 6.58433 69.9553 6.73457 69.8613 6.91365C69.7683 7.09131 69.7026 7.29061 69.6671 7.50993C69.6311 7.73103 69.6132 7.9326 69.6132 8.11912V15.597C69.6132 15.9808 69.7098 16.3281 69.9042 16.6323C70.0979 16.9382 70.4316 17.0933 70.9067 17.0933C71.381 17.0933 71.7179 16.9322 71.9197 16.6123C72.1209 16.2902 72.2207 15.9032 72.2207 15.4474V7.88434ZM74.5492 15.3196C74.5492 16.6145 74.2551 17.5948 73.6683 18.256C73.0808 18.9182 72.1569 19.2501 70.8964 19.2501C69.6364 19.2501 68.7189 18.9334 68.146 18.2996C67.5718 17.6659 67.2862 16.7505 67.2862 15.5533V8.0754C67.2862 7.49226 67.3539 6.95992 67.4896 6.47582C67.6254 5.99196 67.8362 5.5736 68.1235 5.22455C68.4102 4.875 68.7869 4.60594 69.2514 4.41431C69.7173 4.2221 70.2734 4.125 70.9177 4.125C71.6052 4.125 72.1812 4.21383 72.6473 4.39318C73.1127 4.57173 73.4859 4.82901 73.7648 5.17257C74.0443 5.51248 74.244 5.92689 74.3661 6.40951C74.4889 6.89502 74.5492 7.44255 74.5492 8.05663V15.3196Z" fill="#00B2FF"/>
<path d="M80.715 6.40925C80.0116 6.40925 79.5192 6.62062 79.2396 7.04073C78.9587 7.46087 78.8193 8.01348 78.8193 8.69611C78.8193 9.42204 78.9955 9.92502 79.3465 10.2012C79.6981 10.4811 80.1469 10.6193 80.6942 10.6193H81.6209V6.40925H80.715ZM76.1245 19.1219L76.9659 14.3958C77.0658 13.8963 77.2239 13.4441 77.4397 13.038C77.6554 12.6319 77.9564 12.3144 78.3435 12.0867C77.6554 11.802 77.1809 11.3721 76.9215 10.795C76.6628 10.2192 76.5345 9.52599 76.5345 8.71488C76.5345 7.24692 76.8896 6.1388 77.6006 5.38456C78.3116 4.62966 79.2847 4.2524 80.5208 4.2524H83.948V19.1219H81.6209V12.777H81.0167C80.6151 12.777 80.2433 12.9344 79.9076 13.2459C79.5691 13.559 79.3291 14.1162 79.1841 14.9133L78.4732 19.1219H76.1245Z" fill="#00B2FF"/>
<path d="M62.9975 4.2524L61.3798 8.39766L60.1734 11.7089H60.067L58.8902 8.48326L57.2631 4.2524H55V19.1219H57.3288V10.513H57.4377L58.3592 13.1186L59.4322 15.8741H60.8283L61.8798 13.204L62.8248 10.5545H62.9119V19.1219H65.2389V4.2524H62.9975Z" fill="#00B2FF"/>
<path d="M59.6595 39.4943V26.9541H57.3092V39.4943H55V24.75H61.967V39.4943H59.6595Z" fill="#00B2FF"/>
<path d="M71.6278 24.75V39.4943H69.3203V26.889H67.0763V32.577C67.0763 33.7641 67.032 34.7619 66.9471 35.5672C66.8608 36.3749 66.7051 37.0534 66.4774 37.6054C66.2491 38.1579 65.942 38.6062 65.5586 38.9523C65.1734 39.2989 64.6749 39.6048 64.062 39.8749L63.1854 38.1823C63.5565 37.9679 63.8588 37.7362 64.0937 37.4819C64.3288 37.227 64.5177 36.917 64.6605 36.549C64.8023 36.1818 64.8994 35.7346 64.9489 35.2039C64.9985 34.6749 65.0231 34.0145 65.0231 33.2232V24.75H71.6278Z" fill="#00B2FF"/>
<path d="M77.2044 28.1614C77.0615 29.1775 76.9131 30.1919 76.7556 31.2004C76.5989 32.2103 76.4275 33.2371 76.2423 34.2838H78.2733L77.3112 28.1614H77.2044ZM79.2138 39.4943L78.636 36.4225H75.9011C75.7998 36.9305 75.7048 37.443 75.6111 37.9571C75.5189 38.4736 75.4301 38.9848 75.3455 39.4943H72.9941C73.4928 37.0239 73.9908 34.5656 74.4902 32.1216C74.9889 29.6793 75.4877 27.2221 75.9857 24.75H78.5514L81.5639 39.4943H79.2138Z" fill="#00B2FF"/>
<path d="M87.8468 39.4943V33.0544H85.1965V39.4943H82.8888V24.75H85.1965V30.9144H87.8468V24.75H90.1545V39.4943H87.8468Z" fill="#00B2FF"/>
<path d="M92.3581 39.4943V24.75H98.9635V26.8887H94.6658V30.9144H98.4079V33.0966H94.6658V37.3545H98.9635V39.4943H92.3581Z" fill="#00B2FF"/>
<path d="M104.133 26.8887V39.4943H101.824V26.8887H99.4319V24.75H106.526V26.8887H104.133Z" fill="#00B2FF"/>
<path d="M110.225 28.1614C110.082 29.1775 109.933 30.1919 109.776 31.2004C109.618 32.2103 109.448 33.2371 109.263 34.2838H111.293L110.331 28.1614H110.225ZM112.233 39.4943L111.656 36.4225H108.921C108.821 36.9305 108.725 37.4431 108.631 37.9571C108.54 38.4736 108.45 38.9848 108.366 39.4943H106.014C106.512 37.0239 107.012 34.5656 107.51 32.1216C108.009 29.6793 108.507 27.2221 109.007 24.75H111.571L114.583 39.4943H112.233Z" fill="#00B2FF"/>
</svg>
